<svg width="11" height="11" viewBox="0 0 11 11" fill="none" xmlns="http://www.w3.org/2000/svg">
<rect width="11" height="11" fill="white"/>
<path d="M9.18071 4.36821L5.74321 7.80571C5.71129 7.83767 5.67337 7.86303 5.63164 7.88033C5.58991 7.89762 5.54518 7.90653 5.50001 7.90653C5.45483 7.90653 5.4101 7.89762 5.36837 7.88033C5.32664 7.86303 5.28873 7.83767 5.2568 7.80571L1.8193 4.36821C1.7548 4.30371 1.71857 4.21623 1.71857 4.12501C1.71857 4.03379 1.7548 3.94631 1.8193 3.8818C1.88381 3.8173 1.97129 3.78107 2.06251 3.78107C2.15373 3.78107 2.24121 3.8173 2.30571 3.8818L5.50001 7.07653L8.6943 3.8818C8.72624 3.84987 8.76416 3.82453 8.80589 3.80725C8.84762 3.78996 8.89234 3.78107 8.93751 3.78107C8.98268 3.78107 9.0274 3.78996 9.06913 3.80725C9.11086 3.82453 9.14877 3.84987 9.18071 3.8818C9.21265 3.91374 9.23798 3.95166 9.25527 3.99339C9.27255 4.03512 9.28145 4.07984 9.28145 4.12501C9.28145 4.17018 9.27255 4.2149 9.25527 4.25663C9.23798 4.29836 9.21265 4.33627 9.18071 4.36821Z" fill="#0019F9"/>
</svg>
