<svg width="35" height="35" viewBox="0 0 35 35" fill="none" xmlns="http://www.w3.org/2000/svg">
<path d="M32.8125 26.25H31.7188V13.49C31.7188 13.13 31.6299 12.7756 31.4601 12.4582C31.2903 12.1407 31.0448 11.8701 30.7453 11.6703L18.7141 3.64902C18.3547 3.40947 17.9325 3.28165 17.5007 3.28165C17.0688 3.28165 16.6466 3.40947 16.2873 3.64902L4.25605 11.6703C3.95634 11.87 3.71054 12.1405 3.54049 12.4579C3.37044 12.7754 3.28139 13.1299 3.28125 13.49V26.25H2.1875C1.89742 26.25 1.61922 26.3652 1.4141 26.5703C1.20898 26.7755 1.09375 27.0537 1.09375 27.3437C1.09375 27.6338 1.20898 27.912 1.4141 28.1171C1.61922 28.3223 1.89742 28.4375 2.1875 28.4375H32.8125C33.1026 28.4375 33.3808 28.3223 33.5859 28.1171C33.791 27.912 33.9062 27.6338 33.9062 27.3437C33.9062 27.0537 33.791 26.7755 33.5859 26.5703C33.3808 26.3652 33.1026 26.25 32.8125 26.25ZM5.46875 13.49L17.5 5.46874L29.5312 13.4887V26.25H26.25V18.5937C26.25 18.3037 26.1348 18.0255 25.9296 17.8203C25.7245 17.6152 25.4463 17.5 25.1562 17.5H9.84375C9.55367 17.5 9.27547 17.6152 9.07035 17.8203C8.86523 18.0255 8.75 18.3037 8.75 18.5937V26.25H5.46875V13.49ZM24.0625 19.6875V21.875H18.5938V19.6875H24.0625ZM16.4062 21.875H10.9375V19.6875H16.4062V21.875ZM10.9375 24.0625H16.4062V26.25H10.9375V24.0625ZM18.5938 24.0625H24.0625V26.25H18.5938V24.0625Z" fill="#343330"/>
</svg>
