<svg width="52" height="52" viewBox="0 0 52 52" fill="none" xmlns="http://www.w3.org/2000/svg">
<rect width="52" height="52" fill="none"/>
<path d="M45.435 13.4367L27.56 3.65623C27.0824 3.39233 26.5457 3.25391 26 3.25391C25.4543 3.25391 24.9176 3.39233 24.44 3.65623L6.565 13.4408C6.05452 13.7201 5.6284 14.1313 5.33112 14.6315C5.03384 15.1318 4.87632 15.7026 4.875 16.2845V35.7114C4.87632 36.2933 5.03384 36.8641 5.33112 37.3644C5.6284 37.8646 6.05452 38.2758 6.565 38.5551L24.44 48.3397C24.9176 48.6036 25.4543 48.742 26 48.742C26.5457 48.742 27.0824 48.6036 27.56 48.3397L45.435 38.5551C45.9455 38.2758 46.3716 37.8646 46.6689 37.3644C46.9662 36.8641 47.1237 36.2933 47.125 35.7114V16.2865C47.1248 15.7036 46.9678 15.1315 46.6704 14.6301C46.3731 14.1287 45.9464 13.7165 45.435 13.4367ZM26 6.49998L42.3191 15.4375L36.272 18.7484L19.9509 9.81091L26 6.49998ZM26 24.375L9.68094 15.4375L16.5669 11.6675L32.8859 20.605L26 24.375ZM8.125 18.2812L24.375 27.174V44.6001L8.125 35.7134V18.2812ZM43.875 35.7053L27.625 44.6001V27.1822L34.125 23.6254V30.875C34.125 31.306 34.2962 31.7193 34.601 32.024C34.9057 32.3288 35.319 32.5 35.75 32.5C36.181 32.5 36.5943 32.3288 36.899 32.024C37.2038 31.7193 37.375 31.306 37.375 30.875V21.8461L43.875 18.2812V35.7033V35.7053Z" fill="#5856D6"/>
</svg>
