<svg width="32" height="32" viewBox="0 0 32 32" fill="none" xmlns="http://www.w3.org/2000/svg">
<path d="M22 20C21.3329 19.9998 20.6726 20.1334 20.0581 20.393C19.4436 20.6526 18.8874 21.0328 18.4225 21.5112L12.66 17.8075C13.1133 16.6451 13.1133 15.3548 12.66 14.1925L18.4225 10.4887C19.2881 11.3754 20.452 11.909 21.6887 11.9863C22.9254 12.0635 24.1467 11.6787 25.1158 10.9067C26.085 10.1346 26.7329 9.03013 26.934 7.80746C27.1351 6.58479 26.8751 5.33101 26.2043 4.28919C25.5335 3.24737 24.4997 2.49173 23.3035 2.16879C22.1072 1.84584 20.8336 1.97859 19.7297 2.54129C18.6257 3.104 17.77 4.05658 17.3285 5.21434C16.887 6.3721 16.8911 7.65256 17.34 8.80748L11.5775 12.5112C10.8836 11.7988 9.99298 11.3095 9.01954 11.1059C8.04611 10.9023 7.03406 10.9936 6.11278 11.3681C5.19149 11.7426 4.40283 12.3834 3.84759 13.2085C3.29236 14.0336 2.99579 15.0055 2.99579 16C2.99579 16.9945 3.29236 17.9664 3.84759 18.7915C4.40283 19.6166 5.19149 20.2573 6.11278 20.6319C7.03406 21.0064 8.04611 21.0977 9.01954 20.894C9.99298 20.6904 10.8836 20.2011 11.5775 19.4887L17.34 23.1925C16.954 24.1881 16.8968 25.2812 17.177 26.3117C17.4571 27.3422 18.0599 28.2559 18.8969 28.919C19.7339 29.5822 20.7612 29.9599 21.8285 29.997C22.8957 30.034 23.9468 29.7284 24.8277 29.1248C25.7087 28.5213 26.3733 27.6516 26.7242 26.643C27.0751 25.6344 27.0939 24.54 26.7778 23.5199C26.4617 22.4999 25.8273 21.6079 24.9676 20.9745C24.1078 20.3411 23.0679 19.9996 22 20ZM22 3.99998C22.5933 3.99998 23.1734 4.17592 23.6667 4.50557C24.1601 4.83521 24.5446 5.30375 24.7716 5.85193C24.9987 6.4001 25.0581 7.0033 24.9424 7.58525C24.8266 8.16719 24.5409 8.70174 24.1213 9.1213C23.7018 9.54085 23.1672 9.82658 22.5853 9.94233C22.0033 10.0581 21.4001 9.99868 20.8519 9.77161C20.3038 9.54455 19.8352 9.16003 19.5056 8.66669C19.1759 8.17334 19 7.59332 19 6.99998C19 6.20433 19.3161 5.44126 19.8787 4.87866C20.4413 4.31605 21.2043 3.99998 22 3.99998ZM8 19C7.40665 19 6.82663 18.824 6.33328 18.4944C5.83994 18.1647 5.45542 17.6962 5.22836 17.148C5.00129 16.5998 4.94188 15.9966 5.05764 15.4147C5.1734 14.8328 5.45912 14.2982 5.87868 13.8787C6.29823 13.4591 6.83278 13.1734 7.41472 13.0576C7.99667 12.9419 8.59987 13.0013 9.14805 13.2283C9.69622 13.4554 10.1648 13.8399 10.4944 14.3333C10.824 14.8266 11 15.4066 11 16C11 16.7956 10.6839 17.5587 10.1213 18.1213C9.55871 18.6839 8.79564 19 8 19ZM22 28C21.4067 28 20.8266 27.824 20.3333 27.4944C19.8399 27.1647 19.4554 26.6962 19.2284 26.148C19.0013 25.5998 18.9419 24.9966 19.0576 24.4147C19.1734 23.8328 19.4591 23.2982 19.8787 22.8787C20.2982 22.4591 20.8328 22.1734 21.4147 22.0576C21.9967 21.9419 22.5999 22.0013 23.148 22.2283C23.6962 22.4554 24.1648 22.8399 24.4944 23.3333C24.8241 23.8266 25 24.4066 25 25C25 25.7956 24.6839 26.5587 24.1213 27.1213C23.5587 27.6839 22.7956 28 22 28Z" fill="white"/>
</svg>
